<svg width="44" height="51" viewBox="0 0 44 51" fill="none" xmlns="http://www.w3.org/2000/svg">
<g clip-path="url(#clip0_5751_2252)">
<path d="M7.58262 12.4068C10.9392 10.4698 14.2738 8.55492 17.6084 6.64C17.8615 6.49693 17.9276 6.36487 17.8615 6.06773C17.2562 3.50351 18.874 1.15939 21.4822 0.774205C23.9034 0.422037 26.1595 2.32595 26.2915 4.87916C26.3136 5.28636 26.1815 5.69355 26.1595 6.10075C26.1485 6.25482 26.2035 6.48593 26.3136 6.55196C29.6812 8.5109 33.0488 10.4588 36.4494 12.4068C36.5594 12.2967 36.6585 12.2087 36.7575 12.1096C38.0672 10.855 39.916 10.5249 41.5228 11.2622C43.1516 12.0106 44.1201 13.6393 44.01 15.4662C43.9109 17.194 42.7334 18.7128 41.0496 19.23C40.6534 19.3511 40.5543 19.5161 40.5654 19.9013C40.5764 23.6101 40.5764 27.3189 40.5654 31.0276C40.5654 31.4238 40.6644 31.5779 41.0606 31.688C42.7114 32.1832 43.8999 33.7239 44.01 35.4077C44.1311 37.2456 43.1956 38.8634 41.5668 39.6337C39.9821 40.3821 38.1332 40.096 36.8346 38.8744C36.7245 38.7643 36.6255 38.6433 36.5044 38.5002C36.0202 38.7753 35.558 39.0285 35.1067 39.2926C32.2344 40.9434 29.373 42.6052 26.4896 44.2559C26.1815 44.432 26.1045 44.5751 26.1925 44.9383C26.6217 46.6441 25.9064 48.4379 24.4427 49.4394C22.979 50.4299 21.053 50.4299 19.5893 49.4174C18.1477 48.4159 17.4433 46.6331 17.8505 44.9493C17.9165 44.6962 18.0156 44.465 17.6744 44.311C17.4213 44.2009 17.2012 44.0468 16.9591 43.9038C13.8556 42.1099 10.7411 40.3271 7.60463 38.5222C6.05289 40.074 4.25903 40.5472 2.26708 39.5127C0.726346 38.6983 -0.0660316 37.3336 0.0330156 35.5838C0.143068 33.4048 1.41968 32.1282 3.45565 31.5229C3.45565 27.4729 3.45565 23.445 3.45565 19.4061C1.34264 18.7898 0.0660314 17.4692 -1.23866e-07 15.2461C-0.0440211 13.4192 0.847404 12.0876 2.47618 11.2952C4.14898 10.4808 5.75575 10.844 7.58262 12.4068ZM5.11744 31.5229C5.19448 31.5559 5.2495 31.5999 5.31554 31.6109C7.76971 32.3923 8.92526 34.2962 8.41902 36.8054C8.35299 37.1356 8.54007 37.1906 8.72716 37.3006C11.9847 39.1825 15.2423 41.0534 18.4998 42.9243C18.5989 42.9793 18.6979 43.0124 18.797 43.0564C20.4367 41.3175 23.1661 40.9654 25.246 43.0564C25.2791 43.0454 25.3121 43.0454 25.3341 43.0344C28.6797 41.1084 32.0253 39.1715 35.3819 37.2566C35.646 37.1025 35.602 36.9485 35.547 36.7063C35.1838 34.9455 35.712 33.4708 37.1317 32.3813C37.638 31.9961 38.2653 31.765 38.8816 31.4458C38.8816 27.495 38.8816 23.467 38.8816 19.4281C38.7935 19.3841 38.7165 19.3401 38.6284 19.3181C36.1522 18.6797 34.9417 16.0825 35.569 14.1456C35.668 13.8264 35.4589 13.7604 35.2718 13.6503C33.4009 12.5718 31.519 11.4933 29.6481 10.4148C28.1734 9.5674 26.7097 8.72 25.246 7.8836C23.3752 9.79851 20.6789 9.84253 18.764 7.90561C18.7419 7.90561 18.7089 7.91661 18.6759 7.92762C15.3303 9.85354 11.9847 11.7795 8.62812 13.7054C8.36399 13.8594 8.40801 14.0135 8.45203 14.2556C8.91425 16.3246 7.84674 18.3496 5.88781 19.153C5.63469 19.252 5.37056 19.3291 5.10644 19.4281C5.11744 23.467 5.11744 27.495 5.11744 31.5229ZM42.3592 15.1911C42.3592 13.7274 41.1706 12.5388 39.7179 12.5388C38.2763 12.5388 37.0877 13.7164 37.0767 15.1581C37.0657 16.6108 38.2543 17.8213 39.7069 17.8433C41.1596 17.8433 42.3592 16.6548 42.3592 15.1911ZM6.93331 35.7929C6.94431 34.3402 5.73374 33.1296 4.28104 33.1296C2.83935 33.1296 1.66179 34.2962 1.63978 35.7379C1.61777 37.2016 2.78433 38.4012 4.25903 38.4232C5.70072 38.4452 6.9223 37.2346 6.93331 35.7929ZM1.63978 15.1691C1.63978 16.6328 2.82835 17.8323 4.28104 17.8323C5.73374 17.8323 6.93331 16.6218 6.93331 15.1691C6.9223 13.7384 5.74474 12.5608 4.30305 12.5388C2.85036 12.5168 1.65079 13.7054 1.63978 15.1691ZM42.3592 35.7819C42.3592 34.3182 41.1706 33.1186 39.7069 33.1296C38.2543 33.1406 37.0547 34.3512 37.0657 35.8039C37.0767 37.2346 38.2653 38.4122 39.6959 38.4232C41.1596 38.4342 42.3592 37.2456 42.3592 35.7819ZM21.9995 7.6745C23.4632 7.6745 24.6628 6.47492 24.6518 5.02223C24.6408 3.59155 23.4522 2.40298 22.0215 2.39198C20.5578 2.38097 19.3582 3.56954 19.3472 5.02223C19.3362 6.48593 20.5358 7.6745 21.9995 7.6745ZM22.0215 43.2765C20.5578 43.2655 19.3582 44.443 19.3472 45.9067C19.3472 47.3374 20.5248 48.537 21.9555 48.559C23.4192 48.581 24.6297 47.4035 24.6518 45.9508C24.6848 44.4981 23.4852 43.2875 22.0215 43.2765Z" fill="white"/>
<path d="M9.22241 25.4369C9.25543 18.4266 15.0112 12.7039 22.0215 12.7149C29.0649 12.7369 34.8316 18.5256 34.7766 25.536C34.7216 32.5573 28.9548 38.2801 21.9555 38.225C14.9231 38.192 9.2004 32.4363 9.22241 25.4369ZM21.9885 36.5852C28.0964 36.5963 33.1258 31.5779 33.1258 25.481C33.1258 19.395 28.1404 14.3987 22.0435 14.3767C15.9246 14.3436 10.8952 19.34 10.8732 25.4479C10.8622 31.5448 15.8696 36.5742 21.9885 36.5852Z" fill="white"/>
<path d="M24.4207 28.9037C24.3876 29.3769 24.1895 29.652 23.7934 29.7511C23.3642 29.8611 23.045 29.674 22.8579 29.2998C22.5718 28.7276 22.3407 28.1443 22.0435 27.583C21.9665 27.4289 21.7244 27.2639 21.5593 27.2639C20.4037 27.2309 19.2592 27.2309 18.1036 27.2639C17.9386 27.2639 17.7075 27.4289 17.6194 27.583C17.3333 28.1113 17.1132 28.6725 16.849 29.2118C16.5959 29.7401 16.1777 29.9161 15.7265 29.707C15.2863 29.5089 15.1212 29.0577 15.3633 28.5295C16.5849 25.8442 17.8065 23.1699 19.0611 20.5066C19.1822 20.2535 19.5673 19.9784 19.8315 19.9784C20.0956 19.9784 20.4808 20.2535 20.6018 20.5066C21.8564 23.1699 23.078 25.8552 24.2996 28.5295C24.3766 28.6615 24.3986 28.8156 24.4207 28.9037ZM21.1411 25.5801C20.6899 24.6116 20.2827 23.7202 19.8315 22.7297C19.3692 23.7422 18.9621 24.6336 18.5328 25.5801C19.4353 25.5801 20.2387 25.5801 21.1411 25.5801Z" fill="white"/>
<path d="M27.271 24.8097C27.271 26.1303 27.271 27.4509 27.271 28.7715C27.271 29.4098 26.9298 29.795 26.4236 29.784C25.9394 29.773 25.6202 29.3878 25.6202 28.7825C25.6202 26.1633 25.6202 23.533 25.6202 20.9138C25.6202 20.3085 25.9504 19.9343 26.4456 19.9343C26.9408 19.9343 27.271 20.3085 27.271 20.9028C27.271 22.2014 27.271 23.511 27.271 24.8097Z" fill="white"/>
</g>
<defs>
<clipPath id="clip0_5751_2252">
<rect width="44.01" height="49.4576" fill="white" transform="translate(0 0.741211)"/>
</clipPath>
</defs>
</svg>
