<svg width="50" height="46" viewBox="0 0 50 46" fill="none" xmlns="http://www.w3.org/2000/svg">
<g clip-path="url(#clip0_5751_2223)">
<path d="M41.6326 13.0168C44.0369 13.2743 46.0644 14.229 47.6279 16.0232C49.9826 18.7266 50.6195 21.8429 49.3845 25.1912C48.1576 28.5154 45.6688 30.4718 42.1475 31.039C41.4261 31.1557 40.6778 31.1316 39.943 31.1383C39.4495 31.1423 39.1411 30.8084 39.1492 30.3592C39.1572 29.9274 39.4495 29.6418 39.9256 29.6082C40.7261 29.5519 41.5427 29.5801 42.3258 29.4326C46 28.738 48.6765 25.2878 48.3882 21.682C48.0677 17.6712 45.0158 14.689 41.0989 14.5629C40.348 14.5388 40.1227 14.3028 40.0744 13.572C39.9202 11.2321 38.834 9.45397 36.7234 8.4067C34.6329 7.36882 32.5732 7.55387 30.6262 8.84653C29.8913 9.33463 29.5279 9.24747 29.1096 8.4657C27.416 5.29439 24.8601 3.21594 21.2731 2.63934C16.1883 1.82136 11.3395 4.8492 9.70487 9.73825C9.29186 10.9719 9.10681 12.2378 9.139 13.5371C9.15643 14.2599 8.96333 14.5174 8.24593 14.6045C4.86409 15.0162 2.37665 17.5613 1.75714 20.4832C0.759484 25.1912 4.23251 29.4943 9.09206 29.5948C9.4273 29.6015 9.76387 29.5855 10.0978 29.6056C10.5631 29.6337 10.8701 29.9488 10.8728 30.3659C10.8742 30.7802 10.5564 31.1007 10.1058 31.1396C5.04914 31.5741 0.704506 28.0823 0.0675612 23.0712C-0.509041 18.5361 2.6663 14.2009 7.31666 13.1724C7.38237 13.1576 7.44808 13.1456 7.49501 13.1362C8.06759 6.89547 11.0994 2.53072 17.3844 1.20453C22.9868 0.0231689 27.192 2.53474 30.2829 7.19316C32.6456 5.94877 35.0888 5.8026 37.5132 7.04431C39.9215 8.27797 41.2464 10.3175 41.6326 13.0168Z" fill="white"/>
<path d="M21.2463 31.849C21.9784 31.849 22.6328 31.8087 23.2805 31.8664C23.5782 31.8932 23.9335 32.0474 24.1266 32.2647C24.3867 32.5556 24.2272 32.9204 24.018 33.2328C22.0723 36.1373 20.1333 39.0458 18.1863 41.9489C17.7196 42.6449 17.1417 42.6516 16.6804 41.9637C14.724 39.0471 12.7662 36.1306 10.8379 33.1953C10.6824 32.9593 10.618 32.5127 10.74 32.2861C10.8621 32.0595 11.263 31.8946 11.5567 31.8677C12.2191 31.8074 12.8909 31.849 13.6257 31.849C13.6257 31.6384 13.6257 31.4601 13.6257 31.2831C13.6257 28.3223 13.6257 25.3615 13.6257 22.4007C13.6257 21.5318 13.8604 21.2958 14.7213 21.2945C16.5315 21.2931 18.3418 21.2931 20.1521 21.2945C21.0049 21.2945 21.2449 21.5385 21.2449 22.4101C21.2463 25.3374 21.2449 28.2646 21.2449 31.1919C21.2463 31.3904 21.2463 31.5875 21.2463 31.849ZM22.0254 33.4246C21.5426 33.4246 21.1752 33.4259 20.8078 33.4246C19.9214 33.4205 19.6774 33.1765 19.6774 32.2861C19.676 29.3441 19.6774 26.4021 19.6774 23.4601C19.6774 23.2683 19.6774 23.0779 19.6774 22.8996C18.142 22.8996 16.6938 22.8996 15.2053 22.8996C15.2053 23.1208 15.2053 23.3018 15.2053 23.4829C15.2053 26.441 15.2067 29.4004 15.204 32.3585C15.2027 33.1497 14.9345 33.4165 14.15 33.4232C13.7545 33.4273 13.3575 33.4246 12.8587 33.4246C14.4088 35.7457 15.904 37.9838 17.438 40.2808C18.9761 37.9797 20.4685 35.7498 22.0254 33.4246Z" fill="white"/>
<path d="M28.7461 34.9305C28.0073 34.9305 27.3516 34.9707 26.7039 34.913C26.4049 34.8862 26.0482 34.7334 25.8551 34.5161C25.5963 34.2265 25.7532 33.8617 25.9637 33.548C27.908 30.6448 29.847 27.7364 31.7927 24.8346C32.2446 24.1601 32.8628 24.1561 33.3134 24.8265C35.2617 27.7283 37.2021 30.6341 39.1478 33.5372C39.3543 33.8457 39.4803 34.1581 39.2792 34.5175C39.0794 34.8768 38.7428 34.9332 38.3741 34.9305C37.7237 34.9265 37.0733 34.9291 36.3613 34.9291C36.3613 35.1477 36.3613 35.3261 36.3613 35.5031C36.3613 38.4625 36.3613 41.4219 36.3613 44.3827C36.3613 45.2476 36.1253 45.4836 35.2617 45.485C33.4354 45.4863 31.609 45.4863 29.7827 45.485C29.021 45.4836 28.7501 45.2208 28.7488 44.4605C28.7448 41.5011 28.7475 38.5416 28.7475 35.5808C28.7461 35.3851 28.7461 35.1879 28.7461 34.9305ZM32.5463 26.4973C31.0016 28.8118 29.5051 31.0511 27.963 33.3616C28.4444 33.3616 28.8132 33.3616 29.1806 33.3616C30.0737 33.3629 30.3123 33.6016 30.3123 34.492C30.3137 37.434 30.3123 40.3774 30.3123 43.3194C30.3123 43.5111 30.3123 43.7015 30.3123 43.8785C31.8477 43.8785 33.2973 43.8785 34.7884 43.8785C34.7884 43.6425 34.7884 43.4441 34.7884 43.247C34.7884 40.3049 34.787 37.3616 34.7897 34.4196C34.7911 33.6378 35.0499 33.371 35.7927 33.3629C36.2044 33.3589 36.6147 33.3616 37.1297 33.3616C35.5809 31.0404 34.0898 28.8078 32.5463 26.4973Z" fill="white"/>
</g>
<defs>
<clipPath id="clip0_5751_2223">
<rect width="50.0008" height="44.5727" fill="white" transform="translate(-0.000854492 0.913574)"/>
</clipPath>
</defs>
</svg>
