<svg width="51" height="51" viewBox="0 0 51 51" fill="none" xmlns="http://www.w3.org/2000/svg">
<g clip-path="url(#clip0_5751_2229)">
<path d="M0.757084 25.81C0.757084 26.3828 0.769245 26.957 0.754383 27.5298C0.740875 28.0391 0.954323 28.339 1.44607 28.5038C2.9956 29.0253 4.53297 29.5819 6.08251 30.106C6.39187 30.21 6.52832 30.3695 6.60397 30.6896C7.05788 32.6201 7.80226 34.4385 8.85059 36.1258C9.03162 36.4176 9.05188 36.6432 8.89787 36.9512C8.19944 38.3522 7.53882 39.7734 6.83228 41.1702C6.57695 41.6755 6.65531 42.0511 7.04978 42.4307C7.81442 43.1683 8.55608 43.9302 9.31126 44.68C9.79895 45.1636 9.96782 45.1866 10.6068 44.8786C12.0348 44.191 13.4587 43.4939 14.8961 42.8265C15.0676 42.7468 15.3608 42.7536 15.5202 42.8495C17.2697 43.8965 19.1259 44.6813 21.1131 45.1407C21.4225 45.2123 21.5643 45.3555 21.6602 45.6378C22.1763 47.1509 22.7045 48.6599 23.2314 50.1689C23.4732 50.8606 23.6124 50.9605 24.3297 50.9619C25.3942 50.9646 26.4588 50.9497 27.522 50.9673C28.0407 50.9754 28.3244 50.7538 28.4893 50.2675C29.0121 48.7207 29.566 47.186 30.0942 45.6419C30.1901 45.3622 30.3225 45.215 30.6359 45.142C32.6042 44.6827 34.4591 43.9316 36.1748 42.8589C36.4342 42.6968 36.6314 42.6887 36.9083 42.8265C38.3282 43.5303 39.7696 44.191 41.1841 44.9056C41.6974 45.165 42.0608 45.0772 42.4405 44.6827C43.1781 43.9181 43.9441 43.1791 44.6952 42.428C45.1829 41.9403 45.2085 41.7809 44.8978 41.1378C44.2088 39.7126 43.5091 38.2927 42.8403 36.8594C42.7606 36.6878 42.7674 36.3947 42.8633 36.2366C43.9238 34.4763 44.6925 32.6026 45.1964 30.6126C45.245 30.4194 45.4693 30.1979 45.6625 30.1263C47.1985 29.5656 48.7426 29.028 50.2935 28.5079C50.7798 28.3444 51.0081 28.0688 51 27.5487C50.9811 26.4531 50.9973 25.3574 50.9933 24.2618C50.9906 23.5783 50.7798 23.2797 50.1462 23.0581C48.6818 22.5475 47.2201 22.0314 45.7503 21.5356C45.4666 21.4397 45.3112 21.31 45.241 21.0034C44.7897 19.0161 44.013 17.1586 42.9336 15.4307C42.7741 15.1754 42.8012 14.989 42.9214 14.7431C43.6279 13.3084 44.3048 11.8588 45.0235 10.4295C45.2612 9.95669 45.1937 9.60409 44.8222 9.2596C43.9927 8.49092 43.1632 7.72223 42.3486 6.93868C42.0055 6.60905 41.6664 6.58068 41.2476 6.78603C39.8102 7.49392 38.3606 8.1748 36.9259 8.88539C36.6557 9.01914 36.4571 9.03535 36.191 8.87053C34.4753 7.79788 32.6231 7.04135 30.6535 6.58338C30.3211 6.50638 30.186 6.34427 30.0847 6.04706C29.5633 4.51779 29.0107 2.99933 28.496 1.46871C28.3244 0.958054 28.0272 0.740552 27.4896 0.751359C26.3926 0.772975 25.2943 0.754061 24.196 0.759465C23.5543 0.762167 23.2422 0.990476 23.0301 1.59435C22.5127 3.07093 21.9926 4.54751 21.4887 6.0295C21.3968 6.29833 21.2631 6.43343 20.9794 6.49692C18.9881 6.94679 17.1265 7.72358 15.3932 8.79623C15.1433 8.95159 14.9542 8.94753 14.7029 8.8246C13.2655 8.11806 11.8119 7.44258 10.3826 6.72118C9.88541 6.4699 9.52741 6.56177 9.17212 6.94544C8.41558 7.76276 7.65501 8.57603 6.88092 9.37714C6.55399 9.71622 6.50805 10.054 6.7161 10.4741C7.4321 11.9237 8.12243 13.384 8.84113 14.8322C8.96812 15.0876 8.96677 15.274 8.81411 15.5185C7.73471 17.2464 6.98629 19.1134 6.48374 21.0858C6.43375 21.2817 6.22301 21.514 6.03252 21.5829C4.54378 22.126 3.04153 22.6312 1.54604 23.1541C0.82058 23.408 0.747627 23.5242 0.753033 24.2916C0.759789 24.7995 0.757084 25.3048 0.757084 25.81ZM43.3834 10.0688C42.6134 11.6319 41.8839 13.1301 41.1354 14.6188C40.926 15.0362 40.9233 15.4091 41.18 15.8063C42.4188 17.7233 43.2551 19.8051 43.7144 22.0382C43.8117 22.511 44.0629 22.8028 44.5371 22.9568C46.0286 23.4405 47.5065 23.9619 48.9966 24.451C49.3127 24.555 49.4708 24.682 49.4465 25.0481C49.41 25.5844 49.4113 26.1275 49.4465 26.6652C49.4694 27.0205 49.3303 27.1637 49.0101 27.2731C47.4957 27.7919 45.9907 28.3403 44.4777 28.8659C44.1075 28.9942 43.8671 29.2198 43.7982 29.6048C43.3983 31.8609 42.4985 33.9143 41.2624 35.83C41.0085 36.2231 40.9787 36.5757 41.1989 37.0053C41.9055 38.3832 42.5688 39.7842 43.2686 41.1662C43.4145 41.4553 43.3983 41.6404 43.1551 41.8606C42.7309 42.2469 42.3243 42.6522 41.9379 43.0751C41.7164 43.3182 41.5407 43.3237 41.2503 43.1764C39.8831 42.482 38.4957 41.8255 37.1258 41.1365C36.6895 40.9176 36.3072 40.9176 35.8911 41.1851C33.9835 42.4091 31.9126 43.2412 29.6916 43.6938C29.1985 43.7938 28.8986 44.0545 28.7392 44.5476C28.2623 46.0201 27.7422 47.4792 27.2599 48.9503C27.1505 49.2827 27.0154 49.4529 26.629 49.4232C26.1089 49.384 25.5807 49.388 25.0592 49.4218C24.685 49.4461 24.531 49.3043 24.4216 48.9584C23.9677 47.5143 23.4746 46.0809 23.0139 44.6381C22.8653 44.1734 22.5883 43.8762 22.1101 43.7911C19.8324 43.3898 17.7587 42.4847 15.8255 41.2418C15.4472 40.9987 15.1055 40.9744 14.6921 41.1824C13.2938 41.8917 11.8767 42.5631 10.4758 43.2669C10.2029 43.4034 10.03 43.3858 9.82192 43.1588C9.4342 42.7373 9.03567 42.3199 8.60202 41.947C8.32102 41.7039 8.35209 41.5093 8.49934 41.2175C9.18967 39.8504 9.85299 38.4684 10.5406 37.0999C10.7392 36.704 10.7676 36.3393 10.5204 35.957C9.25857 34.0129 8.41829 31.896 7.94681 29.6332C7.85089 29.1725 7.58475 28.9158 7.13489 28.7686C5.61237 28.2728 4.10067 27.7432 2.57951 27.2434C2.27554 27.1434 2.14585 26.9975 2.16206 26.6692C2.18773 26.1478 2.18908 25.6236 2.16206 25.1021C2.14585 24.7698 2.28095 24.636 2.58356 24.5361C4.07365 24.0484 5.55293 23.5323 7.04167 23.0392C7.48343 22.8933 7.78334 22.6285 7.86305 22.1719C8.27103 19.8645 9.19778 17.7678 10.4596 15.809C10.6852 15.4591 10.6852 15.1389 10.4974 14.7688C9.79085 13.3705 9.11403 11.9588 8.40748 10.5619C8.26293 10.2769 8.27103 10.0891 8.51555 9.86618C8.95191 9.469 9.3707 9.05021 9.76923 8.6152C9.96782 8.39905 10.1245 8.4004 10.3745 8.52604C11.7605 9.22178 13.1601 9.89049 14.5462 10.5862C14.9812 10.8051 15.3648 10.8091 15.7809 10.5416C17.6885 9.31634 19.7581 8.48416 21.9804 8.03295C22.4722 7.93298 22.7761 7.6763 22.9355 7.18185C23.4138 5.70797 23.9379 4.2503 24.4135 2.77778C24.5337 2.40627 24.7093 2.27657 25.0943 2.30359C25.5982 2.33872 26.1089 2.33602 26.6128 2.30359C26.9816 2.27928 27.1437 2.41032 27.2545 2.76156C27.7071 4.20707 28.1988 5.63907 28.6608 7.08188C28.8013 7.52364 29.054 7.83706 29.5133 7.91812C31.8261 8.3261 33.9295 9.24339 35.8911 10.5052C36.2572 10.7402 36.5909 10.7389 36.9799 10.543C38.3795 9.83646 39.7886 9.14748 41.2043 8.47606C41.357 8.40446 41.6502 8.40851 41.7623 8.50848C42.3189 8.99752 42.8349 9.53114 43.3834 10.0688Z" fill="white"/>
<path d="M25.8333 13.2246C18.8435 13.2287 13.1722 18.8918 13.1749 25.864C13.1776 32.8349 18.8584 38.4981 25.8454 38.4954C32.8312 38.4927 38.5065 32.8255 38.5038 25.8532C38.4997 18.881 32.8217 13.2206 25.8333 13.2246ZM14.7609 25.8708C14.7528 19.7443 19.6689 14.8241 25.8157 14.8066C31.9504 14.789 36.8908 19.6929 36.9164 25.8235C36.9421 31.9608 31.9936 36.9161 25.8373 36.9148C19.6973 36.9134 14.7691 32 14.7609 25.8708Z" fill="white"/>
<path d="M23.9271 20.7805C24.0933 21.5478 24.2648 22.353 24.4432 23.1568C25.0133 25.733 25.5861 28.3079 26.1575 30.8828C26.1724 30.949 26.1926 31.0125 26.2102 31.0774C26.3574 31.6502 26.7398 31.9271 27.2166 31.8123C27.6652 31.7028 27.8813 31.3043 27.7651 30.7302C27.6084 29.9561 27.4287 29.1874 27.2572 28.416C26.6857 25.8411 26.1143 23.2649 25.5374 20.69C25.4185 20.1577 25.0916 19.9186 24.6053 19.9834C24.1662 20.0429 23.9771 20.3279 23.9271 20.7805Z" fill="white"/>
<path d="M31.8706 25.8695C31.1141 26.2707 30.4468 26.6247 29.778 26.98C29.6294 27.0597 29.4754 27.1326 29.339 27.2285C28.9594 27.4947 28.858 27.9202 29.0728 28.2904C29.3052 28.6889 29.7375 28.8335 30.1617 28.597C31.383 27.9162 32.6015 27.2272 33.8025 26.5112C34.428 26.1383 34.4158 25.4088 33.7809 25.0454C32.5975 24.3659 31.3992 23.7107 30.1995 23.0595C29.7416 22.8109 29.3052 22.9406 29.0688 23.3581C28.8472 23.7472 28.9526 24.1808 29.3863 24.4429C30.0347 24.8347 30.7048 25.1927 31.364 25.5655C31.5086 25.6452 31.6464 25.7344 31.8706 25.8695Z" fill="white"/>
<path d="M19.7851 25.8601C20.6281 25.3872 21.3765 24.9698 22.1222 24.547C22.6721 24.2349 22.8585 23.8093 22.6329 23.4027C22.3992 22.9799 21.9101 22.9029 21.3481 23.2095C20.2417 23.8147 19.1353 24.4227 18.0329 25.0373C17.2305 25.4845 17.2089 26.21 17.991 26.6666C19.1096 27.3204 20.239 27.9554 21.363 28.5998C21.7129 28.7997 22.1074 28.8727 22.3911 28.5768C22.568 28.3917 22.6842 28.0283 22.6342 27.7825C22.5883 27.5515 22.3235 27.315 22.0966 27.1759C21.3698 26.7287 20.6159 26.3275 19.7851 25.8601Z" fill="white"/>
</g>
<defs>
<clipPath id="clip0_5751_2229">
<rect width="50.247" height="50.2173" fill="white" transform="matrix(-1 0 0 1 51 0.751343)"/>
</clipPath>
</defs>
</svg>
