<svg width="38" height="49" viewBox="0 0 38 49" fill="none" xmlns="http://www.w3.org/2000/svg">
<g clip-path="url(#clip0_5751_2237)">
<path d="M37.9947 26.311C37.9893 25.7994 37.7608 25.5523 37.2586 25.4845C36.8467 25.4287 36.4361 25.357 36.0229 25.3424C35.6203 25.3291 35.4662 25.1324 35.2776 24.7857C34.9467 24.1771 35.0158 23.7174 35.4769 23.2458C35.6482 23.0704 35.7692 22.8445 35.91 22.6399C36.2833 22.0991 36.2647 21.836 35.8103 21.3763C35.332 20.8927 34.8471 20.4157 34.3648 19.9347C33.3271 18.8984 33.2886 18.8678 32.1844 19.8284C31.6251 20.3147 31.1361 20.5326 30.4492 20.1061C30.2087 19.9573 30.024 19.871 29.9961 19.5508C29.9563 19.091 29.8513 18.6353 29.7703 18.1796C29.6932 17.7451 29.4354 17.4993 28.9877 17.4953C27.9912 17.4887 26.9947 17.4834 25.9982 17.498C25.5305 17.5046 25.2728 17.769 25.2236 18.2394C25.1744 18.7004 25.0921 19.1601 25.0682 19.6212C25.0535 19.9175 24.8901 19.9998 24.6656 20.146C23.976 20.5951 23.4193 20.4436 22.8732 19.9161C22.7085 19.7567 22.4945 19.6491 22.3059 19.5122C21.9099 19.2266 21.5419 19.2452 21.1925 19.5973C20.5255 20.2682 19.8479 20.9286 19.1862 21.6035C18.8062 21.9902 18.7956 22.309 19.1277 22.7488C19.3775 23.0797 19.6246 23.4145 19.905 23.7201C20.1495 23.9858 20.1255 24.2117 20.0365 24.5558C19.8452 25.2892 19.3988 25.5576 18.6986 25.5789C18.4514 25.5855 18.207 25.6493 17.9612 25.6905C17.4828 25.7702 17.2264 26.0412 17.2277 26.5368C17.2291 27.2171 17.2264 27.8961 17.2264 28.5763C17.2264 30.1282 17.2224 30.1813 18.7809 30.3102C19.4931 30.37 19.8811 30.5919 20.0923 31.2801C20.196 31.6203 20.2279 31.8435 19.9914 32.1199C19.7243 32.4347 19.4997 32.7868 19.2672 33.1296C18.955 33.5893 18.9749 33.8843 19.3629 34.2789C20.0139 34.9419 20.6716 35.5983 21.336 36.248C21.7372 36.6413 22.0707 36.6519 22.5264 36.3038C22.9091 36.0115 23.2771 35.7006 23.6664 35.4176C23.7674 35.3445 23.9388 35.2927 24.0517 35.3246C24.7838 35.5279 25.4043 35.8467 25.3299 36.7688C25.3259 36.818 25.3379 36.8685 25.3458 36.9176C25.5279 38.1241 25.5438 38.1387 26.7529 38.241C26.7795 38.2436 26.8034 38.2795 26.8313 38.3008C26.8313 38.8083 26.8313 39.3172 26.8313 39.8872C26.5935 39.8872 26.3822 39.8872 26.1723 39.8872C18.0316 39.8872 9.8909 39.8872 1.75154 39.8885C0.937075 39.8885 0.71519 40.1104 0.713861 40.9142C0.708546 42.3744 0.708546 43.8333 0.709875 45.2922C0.711204 47.3436 1.93623 48.5646 3.99697 48.5646C11.0242 48.566 18.0515 48.566 25.0788 48.5646C27.1409 48.5646 28.3539 47.3529 28.3579 45.2855C28.3619 43.1304 28.3592 40.9754 28.3592 38.8203C28.3592 38.6303 28.3592 38.4416 28.3592 38.2609C29.9191 38.132 29.9789 38.136 30.0732 36.7183C30.1237 35.9676 30.3642 35.5425 31.091 35.3392C31.37 35.2608 31.5719 35.2156 31.8137 35.4096C32.1632 35.6886 32.5352 35.9397 32.9059 36.1922C33.3603 36.5018 33.6606 36.4792 34.0605 36.0925C34.5601 35.6076 35.045 35.1067 35.5366 34.6111C36.5757 33.5654 36.6235 33.5229 35.6509 32.4374C35.1035 31.8262 34.9799 31.2868 35.4197 30.6264C35.522 30.4736 35.6974 30.3142 35.8675 30.2704C36.3484 30.1481 36.8454 30.0883 37.3343 29.994C37.7701 29.9103 37.9973 29.6419 37.9986 29.1955C37.9986 28.2335 38.004 27.2729 37.9947 26.311ZM26.8525 45.4649C26.8446 46.4707 26.2414 47.0659 25.2289 47.0673C18.1047 47.0699 10.9804 47.0699 3.85614 47.0673C2.82111 47.0673 2.21259 46.4574 2.20993 45.4317C2.20594 44.1083 2.2086 42.785 2.2086 41.4058C10.4383 41.4058 18.6056 41.4058 26.8114 41.4058C26.8273 41.536 26.8539 41.6609 26.8539 41.7858C26.8565 43.0122 26.8618 44.2385 26.8525 45.4649ZM36.4707 28.6242C35.9831 28.7079 35.4981 28.8035 35.0105 28.87C34.5681 28.9297 34.3036 29.1383 34.1615 29.5795C33.9795 30.1441 33.7403 30.6915 33.4958 31.2323C33.3364 31.5871 33.339 31.894 33.5888 32.2022C33.9117 32.5995 34.2226 33.0061 34.5601 33.4366C34.1269 33.8298 33.7137 34.2058 33.27 34.6084C32.9179 34.3586 32.4927 34.0703 32.0821 33.7634C31.7354 33.5043 31.4085 33.499 31.0205 33.6956C30.5196 33.9481 29.9988 34.1686 29.4673 34.3467C29.0156 34.4981 28.7751 34.7626 28.7352 35.2342C28.6954 35.7112 28.6356 36.1855 28.5811 36.6944C28.0018 36.6944 27.4464 36.6944 26.8406 36.6944C26.7516 36.1962 26.6493 35.6833 26.5722 35.1651C26.5124 34.7559 26.2985 34.5327 25.9025 34.3998C25.3392 34.2085 24.7891 33.9747 24.2497 33.7249C23.8737 33.5508 23.5548 33.5721 23.2359 33.8325C22.84 34.1567 22.4334 34.4676 22.0295 34.7851C21.6163 34.3706 21.231 33.9853 20.8071 33.5601C21.0848 33.1695 21.3612 32.7603 21.6588 32.3696C21.9445 31.995 21.9524 31.6376 21.7385 31.2177C21.4834 30.7194 21.2562 30.1999 21.0795 29.6698C20.9334 29.226 20.6663 29.0174 20.2199 28.9802C19.8558 28.9497 19.4944 28.8912 19.1304 28.87C18.85 28.854 18.7079 28.7637 18.7238 28.4514C18.7464 28.0223 18.7291 27.5918 18.7291 27.1042C19.2965 27.0019 19.816 26.8996 20.3381 26.8159C20.7314 26.7521 20.9267 26.5169 21.0569 26.1529C21.2562 25.5935 21.4861 25.0448 21.7332 24.5053C21.9046 24.1333 21.8993 23.8118 21.6362 23.4902C21.3107 23.093 20.9958 22.6877 20.665 22.2705C21.0862 21.8772 21.4941 21.4959 21.9325 21.0867C22.3138 21.3551 22.7377 21.6421 23.1469 21.9463C23.4937 22.2041 23.8219 22.2094 24.2112 22.0154C24.728 21.7577 25.2661 21.5358 25.8095 21.3431C26.1988 21.2049 26.426 20.9857 26.4672 20.5698C26.519 20.0623 26.5895 19.5561 26.6572 18.9954C27.1714 18.9954 27.6657 18.9808 28.1586 19.0073C28.2543 19.0126 28.3978 19.1628 28.4217 19.2691C28.5173 19.6876 28.5745 20.1154 28.6436 20.5406C28.7113 20.9605 28.9425 21.1943 29.361 21.3285C29.9111 21.5039 30.4439 21.7391 30.9661 21.9849C31.3394 22.1602 31.6596 22.1563 31.9812 21.8918C32.3771 21.5677 32.781 21.2528 33.1583 20.9512C33.5729 21.367 33.9662 21.763 34.3913 22.1908C34.1349 22.5535 33.8612 22.9641 33.5623 23.3574C33.2779 23.732 33.2673 24.0828 33.4892 24.5053C33.7483 25.0009 33.9489 25.5297 34.1389 26.0572C34.2771 26.4398 34.4936 26.6737 34.9148 26.7149C35.425 26.764 35.9339 26.8358 36.4707 26.9022C36.4707 27.4682 36.4707 28.0249 36.4707 28.6242Z" fill="white"/>
<path d="M1.44995 37.8037C1.96414 37.809 2.20861 37.4343 2.20861 36.6371C2.20861 27.2209 2.20861 17.8048 2.20861 8.38856C2.20861 8.19324 2.20861 7.99926 2.20861 7.78003C10.4383 7.78003 18.6175 7.78003 26.8526 7.78003C26.8526 8.01786 26.8526 8.22912 26.8526 8.4417C26.8526 9.47008 26.8499 10.4971 26.8565 11.5255C26.8592 11.8869 27.004 12.2177 27.376 12.2775C27.6179 12.3161 27.946 12.239 28.1294 12.0862C28.2835 11.9573 28.3433 11.6464 28.3446 11.4152C28.3606 8.84561 28.3592 6.27599 28.3539 3.70637C28.3539 3.42735 28.3287 3.14036 28.2583 2.87064C27.8995 1.48485 26.7409 0.627867 25.2303 0.626539C18.1684 0.623881 11.108 0.62521 4.04747 0.62521C1.92561 0.626539 0.709886 1.83695 0.709886 3.94951C0.708557 14.8418 0.708557 25.7328 0.708557 36.6239C0.708557 37.4343 0.938415 37.7984 1.44995 37.8037ZM2.22456 3.45658C2.25777 2.74043 2.87693 2.18904 3.61034 2.12659C3.74188 2.11596 3.87608 2.12128 4.00894 2.12128C11.0003 2.12128 17.9931 2.12128 24.9845 2.12128C26.3251 2.12128 26.8499 2.6461 26.8512 3.98273C26.8512 4.71083 26.8512 5.43761 26.8512 6.2162C18.6029 6.2162 10.4224 6.2162 2.21393 6.2162C2.21525 5.27551 2.18204 4.36405 2.22456 3.45658Z" fill="white"/>
<path d="M15.6785 10.1597C14.7697 12.4317 13.8689 14.7077 12.9654 16.9824C12.4273 18.335 11.8905 19.6875 11.3538 21.0401C11.2036 21.4174 11.3059 21.7283 11.6275 21.9542C11.9184 22.1588 12.2373 22.1429 12.4977 21.9077C12.6372 21.7815 12.7342 21.5915 12.806 21.4121C14.2263 17.8659 15.64 14.3171 17.0524 10.7682C17.1122 10.6168 17.1494 10.4547 17.2304 10.1916C17.1082 10.0308 16.9966 9.77707 16.8013 9.64553C16.3787 9.35854 15.9071 9.58707 15.6785 10.1597Z" fill="white"/>
<path d="M19.1397 19.4617C19.4267 19.7806 19.8731 19.8244 20.2039 19.5002C21.2695 18.4546 22.3231 17.3943 23.3608 16.3221C23.6651 16.0085 23.6545 15.6272 23.3582 15.291C23.1389 15.0426 22.8971 14.814 22.6633 14.5789C21.8687 13.7777 21.0835 12.9672 20.2757 12.1793C19.808 11.7223 19.0639 11.8804 18.9909 12.4637C18.9577 12.7267 19.1038 13.0921 19.2951 13.2887C20.1016 14.1231 20.9573 14.911 21.9073 15.8238C20.94 16.7459 20.0684 17.5617 19.2154 18.3974C18.87 18.7349 18.862 19.1521 19.1397 19.4617Z" fill="white"/>
<path d="M9.89755 12.1249C9.56406 11.7914 9.13623 11.8313 8.72036 12.2472C7.75841 13.2091 6.80045 14.175 5.84382 15.1436C5.35753 15.6366 5.35354 15.974 5.83319 16.463C6.71675 17.3625 7.60695 18.2553 8.49449 19.1509C8.5875 19.2452 8.67784 19.3422 8.77617 19.4325C9.16015 19.7846 9.56007 19.8085 9.88161 19.5043C10.1925 19.2093 10.1859 18.7682 9.85769 18.3962C9.75937 18.2846 9.65175 18.1809 9.54413 18.0773C8.77882 17.3452 8.01219 16.6131 7.18045 15.8186C8.10785 14.9217 8.94756 14.1192 9.77531 13.3061C10.1845 12.9008 10.2204 12.4451 9.89755 12.1249Z" fill="white"/>
<path d="M27.6351 23.8875C25.4203 23.8782 23.6412 25.6387 23.6359 27.8416C23.6306 30.0365 25.4176 31.8315 27.6112 31.8355C29.7876 31.8395 31.6052 30.0153 31.5959 27.8402C31.5879 25.6652 29.8141 23.8955 27.6351 23.8875ZM28.3579 30.1415C27.8703 30.2863 26.8552 30.1388 26.8552 30.1388C26.7582 30.1215 26.6639 30.0963 26.5722 30.0631C25.6807 29.7429 25.0629 28.7158 25.1386 27.6489C25.2263 26.4066 26.2972 25.4022 27.5541 25.3836C28.8788 25.365 29.9231 26.2963 30.0812 27.637C30.2114 28.7424 29.4288 29.9116 28.3579 30.1415Z" fill="white"/>
<path d="M17.7247 43.7629C16.6617 43.7562 15.5988 43.7615 14.5359 43.7615C13.457 43.7615 12.3768 43.7562 11.298 43.7642C10.7133 43.7682 10.3785 44.0552 10.3852 44.5149C10.3918 44.9759 10.728 45.2576 11.3152 45.2589C13.457 45.2642 15.6001 45.2642 17.7419 45.2589C18.3425 45.2576 18.6627 44.9932 18.672 44.5229C18.6813 44.0326 18.3584 43.7655 17.7247 43.7629Z" fill="white"/>
<path d="M12.9986 4.91958C13.6125 4.93154 14.2276 4.92224 14.8415 4.92224C15.4553 4.92224 16.0705 4.93154 16.6843 4.91958C17.1866 4.90896 17.4656 4.65252 17.4868 4.22204C17.5081 3.77827 17.2131 3.44212 16.7136 3.43547C15.4686 3.41554 14.2223 3.41687 12.9774 3.43547C12.4911 3.44212 12.1669 3.7982 12.1882 4.21805C12.2107 4.62462 12.5243 4.91028 12.9986 4.91958Z" fill="white"/>
</g>
<defs>
<clipPath id="clip0_5751_2237">
<rect width="37.2914" height="47.9393" fill="white" transform="translate(0.708557 0.625366)"/>
</clipPath>
</defs>
</svg>
